<svg width="70" height="70" viewBox="0 0 70 70" fill="none" xmlns="http://www.w3.org/2000/svg">
<path d="M0 30C0 13.4315 13.4315 0 30 0H70V60C70 65.5229 65.5229 70 60 70H0V30Z" fill="#F94D1C"/>
<path d="M28.9329 37.2426C28.9131 37.4029 28.925 37.5656 28.9681 37.7213C29.0111 37.8771 29.0844 38.0228 29.1838 38.1502C29.2831 38.2776 29.4066 38.3842 29.5471 38.4638C29.6877 38.5435 29.8425 38.5947 30.0029 38.6146C30.1632 38.6344 30.3259 38.6225 30.4816 38.5794C30.6373 38.5364 30.7831 38.4631 30.9105 38.3637C31.0379 38.2644 31.1444 38.1409 31.2241 38.0004C31.3038 37.8598 31.355 37.7049 31.3749 37.5446L28.9329 37.2426ZM29.0278 18.57C28.9009 18.4679 28.755 18.3921 28.5985 18.3469C28.4421 18.3017 28.2782 18.2881 28.1164 18.3067C27.9546 18.3253 27.7981 18.3759 27.656 18.4555C27.514 18.5351 27.3891 18.6421 27.2887 18.7704C27.1883 18.8986 27.1144 19.0455 27.0712 19.2025C27.028 19.3595 27.0164 19.5236 27.0371 19.6851C27.0579 19.8466 27.1104 20.0025 27.1919 20.1435C27.2733 20.2846 27.3819 20.408 27.5114 20.5068L29.0278 18.57ZM47.8579 45.9033C48.02 45.9304 48.186 45.9248 48.3459 45.8867C48.5058 45.8486 48.6564 45.7788 48.7889 45.6815C48.9214 45.5842 49.033 45.4613 49.1172 45.3201C49.2014 45.1789 49.2565 45.0223 49.2791 44.8595C49.3017 44.6966 49.2915 44.5309 49.249 44.3721C49.2065 44.2133 49.1326 44.0647 49.0316 43.9349C48.9307 43.8052 48.8048 43.697 48.6613 43.6167C48.5179 43.5364 48.3598 43.4857 48.1964 43.4676L47.8579 45.9033ZM31.5694 42.408C31.3357 44.2995 29.5626 45.6648 27.5419 45.3829L27.2019 47.818C30.5193 48.2822 33.5985 46.0274 34.0113 42.71L31.5694 42.408ZM27.5419 45.3829C25.5079 45.0991 24.1077 43.2689 24.3446 41.3609L21.9026 41.0589C21.4931 44.3599 23.8973 47.3572 27.2019 47.818L27.5419 45.3829ZM24.3446 41.3609C24.5782 39.4694 26.3513 38.1041 28.372 38.386L28.7114 35.9524C25.394 35.4882 22.3139 37.7409 21.9026 41.0589L24.3446 41.3609ZM28.372 38.386C30.4061 38.6698 31.8063 40.5 31.5694 42.408L34.0113 42.71C34.4208 39.409 32.0167 36.4117 28.712 35.9509L28.372 38.386ZM31.3749 37.5446L33.0063 24.391L30.5644 24.089L28.9329 37.2426L31.3749 37.5446ZM31.3131 20.3551L29.0278 18.57L27.5114 20.5068L29.7975 22.2941L31.3131 20.3551ZM33.0063 24.391C33.0968 23.6293 32.9883 22.8572 32.6916 22.1499C32.3948 21.4426 31.9199 20.8243 31.3131 20.3551L29.8005 22.2953C30.3703 22.741 30.6463 23.4288 30.5644 24.089L33.0063 24.391ZM32.6223 43.7782L47.8579 45.9033L48.1979 43.4683L32.9608 41.3425L32.6223 43.7782Z" fill="white"/>
<path d="M36.1563 28.6348C36.5235 25.6713 36.7082 24.1892 37.7664 23.401C38.8236 22.6107 40.3423 22.8229 43.3803 23.246L46.6019 23.6971C49.6393 24.1217 51.1586 24.3324 51.9883 25.3847C52.8173 26.4384 52.6348 27.9197 52.2653 30.8841L51.8763 34.0285C51.5091 36.992 51.3259 38.4748 50.2671 39.2645C49.209 40.0527 47.6897 39.8419 44.6523 39.4174L41.43 38.9677C38.3927 38.5432 36.874 38.3309 36.0443 37.2786C35.2153 36.2249 35.3993 34.7442 35.7666 31.7807L36.1563 28.6348Z" fill="white" stroke="#F94D1C" stroke-width="1.5"/>
</svg>
