<svg width="124" height="146" viewBox="0 0 124 146" fill="none" xmlns="http://www.w3.org/2000/svg">
<circle cx="5" cy="5" r="5" fill="#D9D9D9"/>
<circle cx="43" cy="5" r="5" fill="#D9D9D9"/>
<circle cx="81" cy="5" r="5" fill="#D9D9D9"/>
<circle cx="119" cy="5" r="5" fill="#D9D9D9"/>
<circle cx="5" cy="39" r="5" fill="#D9D9D9"/>
<circle cx="43" cy="39" r="5" fill="#D9D9D9"/>
<circle cx="81" cy="39" r="5" fill="#D9D9D9"/>
<circle cx="119" cy="39" r="5" fill="#D9D9D9"/>
<circle cx="5" cy="73" r="5" fill="#D9D9D9"/>
<circle cx="43" cy="73" r="5" fill="#D9D9D9"/>
<circle cx="81" cy="73" r="5" fill="#D9D9D9"/>
<circle cx="119" cy="73" r="5" fill="#D9D9D9"/>
<circle cx="5" cy="107" r="5" fill="#D9D9D9"/>
<circle cx="43" cy="107" r="5" fill="#D9D9D9"/>
<circle cx="81" cy="107" r="5" fill="#D9D9D9"/>
<circle cx="119" cy="107" r="5" fill="#D9D9D9"/>
<circle cx="5" cy="141" r="5" fill="#D9D9D9"/>
<circle cx="43" cy="141" r="5" fill="#D9D9D9"/>
<circle cx="81" cy="141" r="5" fill="#D9D9D9"/>
<circle cx="119" cy="141" r="5" fill="#D9D9D9"/>
</svg>
