<svg width="41" height="41" viewBox="0 0 41 41" fill="none" xmlns="http://www.w3.org/2000/svg">
<path d="M12.9329 22.2426C12.9131 22.4029 12.925 22.5656 12.9681 22.7213C13.0111 22.8771 13.0844 23.0228 13.1838 23.1502C13.2831 23.2776 13.4066 23.3842 13.5471 23.4638C13.6877 23.5435 13.8425 23.5947 14.0029 23.6146C14.1632 23.6344 14.3259 23.6225 14.4816 23.5794C14.6373 23.5364 14.7831 23.4631 14.9105 23.3637C15.0379 23.2644 15.1444 23.1409 15.2241 23.0004C15.3038 22.8598 15.355 22.7049 15.3749 22.5446L12.9329 22.2426ZM13.0278 3.56998C12.9009 3.46794 12.755 3.39213 12.5985 3.34693C12.4421 3.30174 12.2782 3.28806 12.1164 3.3067C11.9546 3.32534 11.7981 3.37593 11.656 3.45552C11.514 3.53511 11.3891 3.64213 11.2887 3.77035C11.1883 3.89858 11.1144 4.04548 11.0712 4.2025C11.028 4.35953 11.0164 4.52357 11.0371 4.68511C11.0579 4.84664 11.1104 5.00246 11.1919 5.14351C11.2733 5.28456 11.3819 5.40804 11.5114 5.50678L13.0278 3.56998ZM31.8579 30.9033C32.02 30.9304 32.186 30.9248 32.3459 30.8867C32.5058 30.8486 32.6564 30.7788 32.7889 30.6815C32.9214 30.5842 33.033 30.4613 33.1172 30.3201C33.2014 30.1789 33.2565 30.0223 33.2791 29.8595C33.3017 29.6966 33.2915 29.5309 33.249 29.3721C33.2065 29.2133 33.1326 29.0647 33.0316 28.9349C32.9307 28.8052 32.8048 28.697 32.6613 28.6167C32.5179 28.5364 32.3598 28.4857 32.1964 28.4676L31.8579 30.9033ZM15.5694 27.408C15.3357 29.2995 13.5626 30.6648 11.5419 30.3829L11.2019 32.818C14.5193 33.2822 17.5985 31.0274 18.0113 27.71L15.5694 27.408ZM11.5419 30.3829C9.50788 30.0991 8.10767 28.2689 8.34457 26.3609L5.90263 26.0589C5.49309 29.3599 7.89728 32.3572 11.2019 32.818L11.5419 30.3829ZM8.34457 26.3609C8.57822 24.4694 10.3513 23.1041 12.372 23.386L12.7114 20.9524C9.39398 20.4882 6.3139 22.7409 5.90263 26.0589L8.34457 26.3609ZM12.372 23.386C14.4061 23.6698 15.8063 25.5 15.5694 27.408L18.0113 27.71C18.4208 24.409 16.0167 21.4117 12.712 20.9509L12.372 23.386ZM15.3749 22.5446L17.0063 9.39101L14.5644 9.08899L12.9329 22.2426L15.3749 22.5446ZM15.3131 5.35513L13.0278 3.56998L11.5114 5.50678L13.7975 7.29408L15.3131 5.35513ZM17.0063 9.39101C17.0968 8.62933 16.9883 7.85722 16.6916 7.14992C16.3948 6.44262 15.9199 5.82427 15.3131 5.35513L13.8005 7.29533C14.3703 7.74099 14.6463 8.42879 14.5644 9.08899L17.0063 9.39101ZM16.6223 28.7782L31.8579 30.9033L32.1979 28.4683L16.9608 26.3425L16.6223 28.7782Z" fill="white"/>
<path d="M20.1563 13.6348C20.5235 10.6713 20.7082 9.18916 21.7664 8.40099C22.8236 7.61066 24.3423 7.82293 27.3803 8.24596L30.6019 8.69715C33.6393 9.12169 35.1586 9.33244 35.9883 10.3847C36.8173 11.4384 36.6348 12.9197 36.2653 15.8841L35.8763 19.0285C35.5091 21.992 35.3259 23.4748 34.2671 24.2645C33.209 25.0527 31.6897 24.8419 28.6523 24.4174L25.43 23.9677C22.3927 23.5432 20.874 23.3309 20.0443 22.2786C19.2153 21.2249 19.3993 19.7442 19.7666 16.7807L20.1563 13.6348Z" fill="white" stroke="#F94D1C" stroke-width="1.5"/>
</svg>
