<svg width="28" height="28" viewBox="0 0 28 28" fill="none" xmlns="http://www.w3.org/2000/svg">
<path d="M24.5 12.8333V9.33333C24.5 8.71449 24.2542 8.121 23.8166 7.68342C23.379 7.24583 22.7855 7 22.1667 7H15.1667M15.1667 7L18.6667 10.5M15.1667 7L18.6667 3.5M3.5 15.1667V18.6667C3.5 19.2855 3.74583 19.879 4.18342 20.3166C4.621 20.7542 5.21449 21 5.83333 21H12.8333M12.8333 21L9.33333 17.5M12.8333 21L9.33333 24.5M3.5 4.66667C3.5 4.35725 3.62292 4.0605 3.84171 3.84171C4.0605 3.62292 4.35725 3.5 4.66667 3.5H9.33333C9.64275 3.5 9.9395 3.62292 10.1583 3.84171C10.3771 4.0605 10.5 4.35725 10.5 4.66667V9.33333C10.5 9.64275 10.3771 9.9395 10.1583 10.1583C9.9395 10.3771 9.64275 10.5 9.33333 10.5H4.66667C4.35725 10.5 4.0605 10.3771 3.84171 10.1583C3.62292 9.9395 3.5 9.64275 3.5 9.33333V4.66667ZM17.5 18.6667C17.5 18.3572 17.6229 18.0605 17.8417 17.8417C18.0605 17.6229 18.3572 17.5 18.6667 17.5H23.3333C23.6428 17.5 23.9395 17.6229 24.1583 17.8417C24.3771 18.0605 24.5 18.3572 24.5 18.6667V23.3333C24.5 23.6428 24.3771 23.9395 24.1583 24.1583C23.9395 24.3771 23.6428 24.5 23.3333 24.5H18.6667C18.3572 24.5 18.0605 24.3771 17.8417 24.1583C17.6229 23.9395 17.5 23.6428 17.5 23.3333V18.6667Z" stroke="white" stroke-width="2" stroke-linecap="round" stroke-linejoin="round"/>
</svg>
