<svg width="159" height="53" viewBox="0 0 159 53" fill="none" xmlns="http://www.w3.org/2000/svg">
<path d="M25.8006 26.4718L10.9712 35.8548L10.5121 18.3124L25.8006 26.4718ZM28.4906 26.3615L9.09814 16.0117L9.70033 38.2361L28.4906 26.3615Z" fill="#333333"/>
<path d="M48.0277 16.8204L48.4868 34.3629L33.1983 26.2034L48.0277 16.8204ZM49.312 14.4139L30.5134 26.2841L49.9142 36.6383L49.312 14.4139Z" fill="#333333"/>
<path d="M30.2773 4.5022L30.3634 23.9214L47.0965 13.9651L30.2773 4.5022Z" fill="#F94D1C"/>
<path d="M27.6725 4.56205L28.2015 24.1095L11.1222 14.9942L27.6725 4.56205Z" fill="#F94D1C"/>
<path d="M28.6514 28.5555L28.9686 48.5196L11.483 39.1876L28.3861 28.4138L28.6514 28.5555Z" fill="#F94D1C"/>
<path d="M30.9988 28.6082L31.2593 48.2393L47.8294 37.5906L30.9988 28.6082Z" fill="#F94D1C"/>
<path d="M56 28.1032C56 22.0344 58.6365 19 63.9094 19C65.9966 19 67.6233 19.3936 68.7894 20.1809C69.964 20.9605 70.771 22.0153 71.2104 23.3452C71.6583 24.6675 71.8822 26.2535 71.8822 28.1032C71.8822 30.8242 71.2654 32.9873 70.0316 34.5924C68.7979 36.1975 66.7572 37 63.9094 37C61.0448 37 59.0083 36.2051 57.7999 34.6153C56.6 33.0255 56 30.8548 56 28.1032ZM64.5432 33.3427C65.2361 33.3427 65.6333 33.3083 65.7347 33.2395C65.9459 32.9032 66.1065 32.3185 66.2163 31.4854C66.3262 30.6446 66.3811 29.7045 66.3811 28.665C66.3811 27.572 66.322 26.5592 66.2037 25.6268C66.0938 24.6866 65.9375 24.0293 65.7347 23.6548C65.5234 23.5019 65.2108 23.3873 64.7967 23.3108C64.3826 23.2344 63.9263 23.1924 63.4278 23.1847C63.1405 23.1847 62.8785 23.2 62.6419 23.2306C62.4137 23.2535 62.249 23.2917 62.1476 23.3452C61.9025 23.7274 61.7208 24.2815 61.6025 25.0076C61.4927 25.7261 61.4377 26.5478 61.4377 27.4726C61.4377 28.5197 61.5011 29.5631 61.6279 30.6025C61.7546 31.642 61.9109 32.4369 62.0968 32.9873C62.2152 33.1019 62.5151 33.1898 62.9968 33.251C63.4785 33.3121 63.9939 33.3427 64.5432 33.3427Z" fill="#333333"/>
<path d="M74.7976 32.7809C74.7976 31.535 74.8145 30.5949 74.8483 29.9605C74.8821 29.3185 74.9708 28.3783 75.1144 27.1401L73.6568 26.9682C73.4793 26.4713 73.361 26.028 73.3019 25.6382C73.2512 25.2484 73.2258 24.7439 73.2258 24.1248C73.361 24.0178 73.585 23.8917 73.8976 23.7465C74.2187 23.5936 74.5948 23.4637 75.0257 23.3567C75.4651 23.242 75.9088 23.1847 76.3566 23.1847C77.3791 23.1847 78.1016 23.3834 78.5241 23.7809C78.9551 24.1783 79.1706 24.7745 79.1706 25.5694C79.1706 26.0127 79.0987 26.6127 78.9551 27.3694C78.7185 28.5847 78.6002 29.2229 78.6002 29.2841C78.6002 29.3223 78.6297 29.3605 78.6889 29.3987C78.7481 29.4293 78.8114 29.4446 78.879 29.4446C78.9551 29.4446 79.0058 29.4178 79.0311 29.3643C79.0227 29.3949 79.1199 29.0089 79.3227 28.2064C79.5677 27.1516 79.817 26.2917 80.0705 25.6268C80.3325 24.9618 80.7465 24.3924 81.3127 23.9185C81.8789 23.4446 82.6478 23.2076 83.6196 23.2076C84.8195 23.2076 85.6857 23.521 86.2181 24.1478C86.7504 24.7669 87.0166 25.5924 87.0166 26.6242C87.0166 27.442 86.8645 28.3516 86.5603 29.3529C86.5603 29.3911 86.5899 29.4293 86.649 29.4675C86.7082 29.4981 86.7716 29.5134 86.8392 29.5134C86.9152 29.5134 86.9659 29.4866 86.9913 29.4331L87.1687 28.7911C87.4729 27.6599 87.7729 26.7197 88.0687 25.9707C88.3729 25.2217 88.825 24.5758 89.4249 24.0331C90.0333 23.4828 90.8234 23.2076 91.7952 23.2076C93.0712 23.2076 93.9881 23.5783 94.5458 24.3197C95.1119 25.0611 95.395 25.9936 95.395 27.1172C95.395 27.9121 95.3105 28.7108 95.1415 29.5134C94.981 30.3159 94.8077 30.9885 94.6218 31.5312C94.4444 32.0739 94.2247 32.7006 93.9627 33.4115L93.9881 33.4344L95.864 32.7236C96.5231 33.2357 96.9076 33.9159 97.0175 34.7643C97.0175 34.8178 96.8273 35.0395 96.4471 35.4293C96.0668 35.8115 95.564 36.1707 94.9387 36.507C94.3218 36.8357 93.612 37 92.8093 37C92.0065 37 91.3516 36.8051 90.8446 36.4153C90.3376 36.0255 90.084 35.3605 90.084 34.4204C90.084 33.3732 90.1052 32.2994 90.1474 31.1987C90.1981 30.0904 90.27 29.0968 90.3629 28.2178C90.2193 28.1108 90.0207 28.0535 89.7672 28.0459C89.5137 28.2675 89.1968 28.7529 88.8165 29.5019C88.4363 30.2433 88.0856 31.0382 87.7645 31.8866C87.4433 32.7274 87.2405 33.3847 87.156 33.8586C87.2743 34.6076 87.456 35.349 87.7011 36.0828C87.549 36.3427 87.2363 36.5605 86.7631 36.7363C86.2899 36.9121 85.7068 37 85.0139 37C84.3886 37 83.8985 36.9541 83.5436 36.8624C83.1887 36.7707 82.9436 36.6752 82.8084 36.5758C82.6816 36.4764 82.6183 36.4115 82.6183 36.3809C82.6098 36.3121 82.5887 36.1325 82.5549 35.842C82.5211 35.5439 82.4873 35.1312 82.4535 34.6038C82.4197 34.0688 82.4028 33.4611 82.4028 32.7809C82.4028 32.1312 82.4577 31.3172 82.5676 30.3389C82.576 30.2166 82.6014 29.9261 82.6436 29.4675C82.6859 29.0089 82.707 28.5924 82.707 28.2178C82.5633 28.1108 82.3648 28.0535 82.1112 28.0459C81.9676 28.1452 81.5662 28.7796 80.9071 29.949C80.248 31.1185 79.8086 31.9439 79.5889 32.4255C79.5719 32.5325 79.5635 32.6357 79.5635 32.735C79.5635 33.1172 79.6269 33.6331 79.7536 34.2828C79.8804 34.9248 80.0367 35.5248 80.2226 36.0828C80.0705 36.3427 79.7579 36.5605 79.2846 36.7363C78.8114 36.9121 78.2284 37 77.5354 37C76.9101 37 76.4073 36.9541 76.0271 36.8624C75.6553 36.7707 75.3933 36.6752 75.2412 36.5758C75.0891 36.4688 75.013 36.4038 75.013 36.3809C75.0046 36.3121 74.9835 36.1325 74.9497 35.842C74.9159 35.5439 74.8821 35.1312 74.8483 34.6038C74.8145 34.0688 74.7976 33.4611 74.7976 32.7809Z" fill="#333333"/>
<path d="M97.2203 34.8331C97.2203 34.4815 97.2752 34.1223 97.3851 33.7554C97.4949 33.3809 97.6428 33.0713 97.8287 32.8268L99.0455 33.0331L100.414 22.3019L98.4625 22.0497C98.3019 21.6675 98.2216 21.2777 98.2216 20.8803C98.2216 20.4752 98.3104 20.0624 98.4878 19.642C98.9357 19.451 99.7004 19.2981 100.782 19.1834C101.872 19.0611 102.84 19 103.685 19C104.471 19 105.438 19.0153 106.587 19.0459L107.031 19.2293C107.217 19.7032 107.47 20.5172 107.792 21.6713C108.121 22.8178 108.679 24.8433 109.465 27.7478C109.591 28.1987 109.731 28.7108 109.883 29.2841C110.289 27.9541 110.787 26.0739 111.379 23.6433L111.696 22.3936H111.759L109.655 22.0726C109.452 21.6446 109.351 21.186 109.351 20.6968C109.351 20.3758 109.397 20.028 109.49 19.6535C110.31 19.4166 111.163 19.2484 112.05 19.149C112.946 19.0497 113.922 19 114.978 19H115.397C115.845 19 116.483 19.0153 117.311 19.0459L117.754 19.2293C118.295 21.0025 118.811 23.1541 119.301 25.6841C119.799 28.2064 120.175 30.5223 120.429 32.6318L120.467 32.9185C120.475 32.972 120.496 33.1554 120.53 33.4688C120.564 33.7745 120.581 34.0688 120.581 34.3516C120.581 34.6955 120.543 35.0357 120.467 35.372C120.34 35.8764 120.112 36.293 119.782 36.6217C119.453 36.7439 119.106 36.8357 118.743 36.8968C118.388 36.9656 117.974 37 117.501 37C117.036 37 116.571 36.9503 116.107 36.851C115.65 36.7592 115.346 36.6217 115.194 36.4382L115.65 33.8127L114.89 26.6013L114.953 22.7605H114.56L113.939 26.693C113.111 29.4675 112.355 31.6153 111.67 33.1363C111.907 33.5567 112.11 34.0229 112.279 34.535C112.456 35.0471 112.566 35.5478 112.608 36.0369C112.253 36.3427 111.767 36.5796 111.151 36.7478C110.542 36.9159 109.896 37 109.211 37C108.51 37 107.868 36.9121 107.285 36.7363C106.71 36.5605 106.292 36.3159 106.03 36.0025C106.072 35.2306 106.283 34.4854 106.663 33.7669L104.407 26.3949L103.469 22.921L103.038 22.9783L103.659 26.865C103.626 28.2178 103.571 29.5936 103.495 30.9924C103.419 32.3911 103.334 33.4994 103.241 34.3172H103.254C103.186 34.7987 103.004 35.2268 102.709 35.6013C102.421 35.9682 102.054 36.2548 101.606 36.4611C101.167 36.6675 100.689 36.7707 100.174 36.7707C98.8216 36.7707 97.8456 36.2433 97.2456 35.1885C97.2287 35.0357 97.2203 34.9172 97.2203 34.8331Z" fill="#333333"/>
<path d="M126.323 29.2153C126.821 29.2153 127.371 29.2611 127.971 29.3529C128.579 29.4446 129.137 29.5554 129.644 29.6854V29.3299C129.644 29.093 129.635 28.8293 129.619 28.5389C129.61 28.2484 129.593 28.0573 129.568 27.9656C129.492 27.8357 129.272 27.7019 128.909 27.5643C128.554 27.4268 127.971 27.358 127.159 27.358C126.661 27.358 126.145 27.4153 125.613 27.5299C125.089 27.6369 124.506 27.7822 123.864 27.9656C123.517 27.4459 123.239 26.9529 123.027 26.4866C122.825 26.0127 122.723 25.5389 122.723 25.065C122.723 24.9197 122.736 24.7745 122.761 24.6293C124.13 23.6662 125.9 23.1847 128.072 23.1847C129.272 23.1847 130.337 23.307 131.266 23.5516C132.196 23.7962 132.961 24.2701 133.561 24.9732C134.161 25.6764 134.46 26.6739 134.46 27.9656C134.46 29.2268 134.296 30.4497 133.966 31.6344C133.645 32.8115 133.48 33.4115 133.472 33.4344L135.31 32.7236C135.555 32.9605 135.77 33.251 135.956 33.5949C136.151 33.9312 136.273 34.321 136.324 34.7643C136.205 34.9936 135.948 35.2879 135.551 35.6471C135.153 35.9987 134.668 36.3121 134.093 36.5873C133.518 36.8624 132.918 37 132.293 37C131.592 37 131.059 36.8127 130.696 36.4382C130.341 36.0637 130.164 35.5783 130.164 34.9822C130.164 34.6459 130.218 34.3057 130.328 33.9618L129.948 33.8586C129.711 35.0662 129.209 35.8917 128.44 36.335C127.671 36.7783 126.821 37 125.892 37C125.284 37 124.696 36.8471 124.13 36.5414C123.564 36.228 123.103 35.7771 122.748 35.1885C122.394 34.5924 122.216 33.8968 122.216 33.1019C122.216 31.8331 122.567 30.8701 123.268 30.2127C123.97 29.5478 124.988 29.2153 126.323 29.2153ZM127.768 33.5834C127.979 33.5452 128.228 33.4382 128.516 33.2624C128.812 33.0866 129.073 32.8764 129.302 32.6318C129.53 32.3873 129.665 32.1541 129.707 31.9325L129.631 31.6573C129.183 31.6038 128.706 31.5771 128.199 31.5771C127.768 31.5771 127.472 31.6076 127.312 31.6688C127.041 31.9439 126.906 32.2497 126.906 32.586C126.906 32.8306 126.974 33.0522 127.109 33.251C127.252 33.4497 127.472 33.5605 127.768 33.5834Z" fill="#333333"/>
<path d="M138.238 33.6981C138.238 33.3694 138.246 32.5631 138.263 31.279C138.288 28.7567 138.301 27.3771 138.301 27.1401L137.135 26.9682C136.974 26.5325 136.86 26.1236 136.793 25.7414C136.725 25.3592 136.691 24.9732 136.691 24.5834C136.691 24.4229 136.696 24.3006 136.704 24.2166C136.848 24.1019 137.072 23.9643 137.376 23.8038C137.68 23.6433 138.039 23.5019 138.453 23.3796C138.867 23.2497 139.29 23.1847 139.721 23.1847C140.726 23.1847 141.453 23.3873 141.901 23.7924C142.357 24.1975 142.585 24.7898 142.585 25.5694C142.585 26.0433 142.518 26.651 142.383 27.3924C142.256 28.1261 142.125 28.6497 141.99 28.9631L142.446 29.0318L143.206 26.4408C143.545 25.2713 143.967 24.4382 144.474 23.9414C144.981 23.4369 145.551 23.1847 146.185 23.1847C146.599 23.1847 147.009 23.242 147.415 23.3567C147.829 23.4713 148.146 23.6127 148.365 23.7809C148.602 24.2548 148.72 24.8854 148.72 25.6726C148.72 26.2229 148.661 26.7694 148.543 27.3121C148.425 27.8471 148.272 28.279 148.087 28.6076L145.425 28.2866C144.884 28.8064 144.309 29.5287 143.701 30.4535C143.092 31.3707 142.607 32.2153 142.243 32.9873L142.23 33.5834L144.69 33.0561C145.104 33.6293 145.344 34.3096 145.412 35.0968C145.412 35.1427 145.222 35.3299 144.842 35.6586C144.461 35.9873 143.959 36.293 143.333 36.5758C142.716 36.851 142.007 36.9885 141.204 36.9885C140.376 36.9885 139.683 36.7898 139.125 36.3924C138.576 35.9873 138.284 35.307 138.25 34.3516C138.242 34.2369 138.238 34.0191 138.238 33.6981Z" fill="#333333"/>
<path d="M150.685 30.442C150.685 29.1962 150.706 28.0611 150.748 27.0369L149.367 26.8191C149.257 26.4369 149.181 26.1006 149.139 25.8102C149.096 25.5197 149.075 25.2102 149.075 24.8815L149.101 24.6522C149.126 24.5452 149.139 24.4573 149.139 24.3885L150.976 24.0217C151.019 23.5478 151.116 23.0127 151.268 22.4166C151.42 21.8204 151.581 21.3809 151.75 21.0981C152.02 20.9146 152.345 20.7771 152.726 20.6854C153.106 20.5936 153.516 20.5478 153.955 20.5478C154.327 20.5478 154.686 20.5822 155.033 20.651C155.388 20.7121 155.696 20.7962 155.958 20.9032C155.983 21.1631 155.996 21.4611 155.996 21.7975C155.996 22.3478 155.966 22.9707 155.907 23.6662L158.138 23.2994C158.451 23.7885 158.607 24.3197 158.607 24.893C158.607 25.2904 158.552 25.6497 158.442 25.9707C158.341 26.2917 158.197 26.6548 158.011 27.0599C157.454 27.1439 156.689 27.1975 155.717 27.2204C155.599 28.4662 155.337 30.2968 154.931 32.7121L154.868 33.1019L154.893 33.1248L157.872 32.2879C158.489 32.7541 158.865 33.4726 159 34.4433C159 34.4968 158.725 34.749 158.176 35.2C157.635 35.6433 156.955 36.0561 156.135 36.4382C155.316 36.8127 154.424 37 153.461 37C151.779 37 150.884 36.0713 150.774 34.214C150.715 33.2739 150.685 32.0166 150.685 30.442Z" fill="#333333"/>
</svg>
