<svg width="70" height="70" viewBox="0 0 70 70" fill="none" xmlns="http://www.w3.org/2000/svg">
<path d="M0 30C0 13.4315 13.4315 0 30 0H70V60C70 65.5229 65.5229 70 60 70H0V30Z" fill="#F94D1C"/>
<path d="M36 17L51 24.5596V43.4586L36 51L21 43.4586V24.5596L36 17ZM47.268 25.2865L36 19.6168L31.655 21.7974L42.851 27.5035L47.268 25.2865ZM36 30.9562L40.2909 28.8119L29.0769 23.1058L24.732 25.2865L36 30.9562ZM23.3077 27.1764V42.0048L34.8462 47.8199V32.9914L23.3077 27.1764ZM37.1538 47.8199L48.6923 42.0048V27.1764L37.1538 32.9914V47.8199Z" fill="white"/>
</svg>
